# xmcd
#
# Track frame offsets: 
#        150
#        22467
#        46004
#        71298
#        92546
#        112507
#        137305
#        158231
#        185155
#        202542
#        224065
#        247226
#
# Disc length: 3557 seconds
#
# Revision: 0
# Processed by: cddbd v1.5.2PL0 Copyright (c) Steve Scherf et al.
# Submitted via: ExactAudioCopyFreeDBPlugin 1.0
#
DISCID=a00de30c
DTITLE=Krzysztof Puma Piasecki - Backward Forward
DYEAR=2017
DGENRE=Blues
TTITLE0=Get Ready For A Spin
TTITLE1=Who Could Ask For Me
TTITLE2=For Gibson
TTITLE3=Waiting
TTITLE4=Duck and Roll
TTITLE5=Rumba Pa Ti
TTITLE6=Change Time
TTITLE7=Part 1 Hazy Lazy Promises, Part 2 Mellow Grapes Mellow Wines
TTITLE8=Bluezy Booezy
TTITLE9=Two Of Us
TTITLE10=Backto Where I Once Was
TTITLE11=Hand Up If U Do
EXTD=
EXTT0=
EXTT1=
EXTT2=
EXTT3=
EXTT4=
EXTT5=
EXTT6=
EXTT7=
EXTT8=
EXTT9=
EXTT10=
EXTT11=
PLAYORDER=
